<svg width="375" height="24" viewBox="0 0 375 24" fill="none" xmlns="http://www.w3.org/2000/svg">
<path d="M38.5 10.5H17.5C16.6716 10.5 16 11.1716 16 12C16 12.8284 16.6716 13.5 17.5 13.5H38.5C39.3284 13.5 40 12.8284 40 12C40 11.1716 39.3284 10.5 38.5 10.5Z" fill="#FEFEFE"/>
<path d="M17.5 6.50001H38.5C39.3284 6.50001 40 5.82843 40 5C40 4.17158 39.3284 3.5 38.5 3.5H17.5C16.6716 3.5 16 4.17158 16 5C16 5.82843 16.6716 6.50001 17.5 6.50001Z" fill="#FEFEFE"/>
<path d="M38.5 17.5H17.5C16.6716 17.5 16 18.1716 16 19C16 19.8284 16.6716 20.5 17.5 20.5H38.5C39.3284 20.5 40 19.8284 40 19C40 18.1716 39.3284 17.5 38.5 17.5Z" fill="#FEFEFE"/>
<path d="M302.81 20.18C302.55 20.18 302.28 20.17 301.99 20.14C301.47 20.1 300.88 20 300.27 19.85L298.59 19.45C293.98 18.36 292.47 15.92 293.55 11.32L294.53 7.13001C294.75 6.18002 295.01 5.41002 295.33 4.77002C297.05 1.22002 300.34 1.54001 302.68 2.09001L304.35 2.48001C306.69 3.03001 308.17 3.90001 309 5.23002C309.82 6.56002 309.95 8.27001 309.4 10.61L308.42 14.79C307.56 18.45 305.77 20.18 302.81 20.18ZM300.12 3.25001C298.45 3.25001 297.39 3.94002 296.68 5.42002C296.42 5.96002 296.19 6.63001 295.99 7.47001L295.01 11.66C294.12 15.44 295.15 17.09 298.93 17.99L300.61 18.39C301.15 18.52 301.66 18.6 302.12 18.64C304.84 18.91 306.19 17.72 306.95 14.45L307.93 10.27C308.38 8.34002 308.32 6.99002 307.72 6.02001C307.12 5.05001 305.94 4.39002 304 3.94002L302.33 3.55001C301.5 3.35001 300.76 3.25001 300.12 3.25001Z" fill="#FEFEFE"/>
<path d="M295.33 22.25C292.76 22.25 291.12 20.71 290.07 17.46L288.79 13.5101C287.37 9.11005 288.64 6.63005 293.02 5.21005L294.6 4.70005C295.12 4.54005 295.51 4.43005 295.86 4.37005C296.15 4.31005 296.43 4.42005 296.6 4.65005C296.77 4.88005 296.8 5.18005 296.68 5.44005C296.42 5.97005 296.19 6.64005 296 7.48005L295.02 11.6701C294.13 15.4501 295.16 17.1001 298.94 18.0001L300.62 18.4001C301.16 18.5301 301.67 18.6101 302.13 18.6501C302.45 18.68 302.71 18.9 302.8 19.21C302.88 19.5201 302.76 19.8401 302.5 20.0201C301.84 20.4701 301.01 20.85 299.96 21.1901L298.38 21.71C297.23 22.07 296.23 22.25 295.33 22.25ZM294.78 6.22005L293.49 6.64005C289.92 7.79005 289.07 9.47005 290.22 13.0501L291.5 17.0001C292.66 20.5701 294.34 21.4301 297.91 20.2801L299.49 19.7601C299.55 19.7401 299.6 19.7201 299.66 19.7001L298.6 19.4501C293.99 18.3601 292.48 15.92 293.56 11.3201L294.54 7.13005C294.61 6.81005 294.69 6.50005 294.78 6.22005Z" fill="#FEFEFE"/>
<path d="M304.49 10.51C304.43 10.51 304.37 10.5 304.3 10.49L299.45 9.26002C299.05 9.16002 298.81 8.75002 298.91 8.35002C299.01 7.95002 299.42 7.71002 299.82 7.81002L304.67 9.04002C305.07 9.14002 305.31 9.55002 305.21 9.95002C305.13 10.28 304.82 10.51 304.49 10.51Z" fill="#FEFEFE"/>
<path d="M301.56 13.89C301.5 13.89 301.44 13.88 301.37 13.87L298.46 13.13C298.06 13.03 297.82 12.62 297.92 12.22C298.02 11.82 298.43 11.58 298.83 11.68L301.74 12.42C302.14 12.52 302.38 12.93 302.28 13.33C302.2 13.67 301.9 13.89 301.56 13.89Z" fill="#FEFEFE"/>
<g clip-path="url(#clip0_5389_3218)">
<path d="M350 18V18.75C350 19.5456 349.684 20.3087 349.121 20.8713C348.559 21.4339 347.796 21.75 347 21.75C346.204 21.75 345.441 21.4339 344.879 20.8713C344.316 20.3087 344 19.5456 344 18.75V18M355.047 16.4733C353.844 15 352.994 14.25 352.994 10.1883C352.994 6.46875 351.095 5.14359 349.531 4.5C349.324 4.41469 349.128 4.21875 349.065 4.00547C348.791 3.07219 348.022 2.25 347 2.25C345.978 2.25 345.209 3.07266 344.937 4.00641C344.874 4.22203 344.679 4.41469 344.471 4.5C342.906 5.14453 341.008 6.465 341.008 10.1883C341.006 14.25 340.156 15 338.952 16.4733C338.454 17.0836 338.891 18 339.763 18H354.242C355.109 18 355.543 17.0808 355.047 16.4733Z" stroke="#FEFEFE" stroke-width="1.5" stroke-linecap="round" stroke-linejoin="round"/>
<circle cx="352" cy="6" r="6" fill="#4B7FD6"/>
<g filter="url(#filter0_d_5389_3218)">
<path d="M350.79 8.12C350.783 8.13333 350.783 8.14667 350.79 8.16C350.797 8.16667 350.807 8.17 350.82 8.17H353.83C353.897 8.17 353.93 8.20333 353.93 8.27V8.9C353.93 8.96667 353.897 9 353.83 9H349.64C349.573 9 349.54 8.96667 349.54 8.9V8.29C349.54 8.24333 349.557 8.20333 349.59 8.17C349.817 7.91 350.337 7.3 351.15 6.34L351.84 5.51C352.46 4.77 352.77 4.19667 352.77 3.79C352.77 3.47667 352.663 3.22667 352.45 3.04C352.243 2.84667 351.967 2.75 351.62 2.75C351.273 2.75 350.997 2.84667 350.79 3.04C350.583 3.23333 350.483 3.48667 350.49 3.8V4.1C350.49 4.16667 350.457 4.2 350.39 4.2H349.62C349.553 4.2 349.52 4.16667 349.52 4.1V3.67C349.533 3.32333 349.63 3.01667 349.81 2.75C349.997 2.48333 350.247 2.28 350.56 2.14C350.873 1.99333 351.227 1.92 351.62 1.92C352.047 1.92 352.42 2 352.74 2.16C353.06 2.32 353.307 2.54 353.48 2.82C353.653 3.1 353.74 3.41667 353.74 3.77C353.74 4.32333 353.44 4.97667 352.84 5.73C352.573 6.07 352.257 6.45333 351.89 6.88C351.523 7.3 351.157 7.71333 350.79 8.12Z" fill="#FEFEFE"/>
</g>
</g>
<defs>
<filter id="filter0_d_5389_3218" x="347.52" y="0.920044" width="8.41003" height="11.08" filterUnits="userSpaceOnUse" color-interpolation-filters="sRGB">
<feFlood flood-opacity="0" result="BackgroundImageFix"/>
<feColorMatrix in="SourceAlpha" type="matrix" values="0 0 0 0 0 0 0 0 0 0 0 0 0 0 0 0 0 0 127 0" result="hardAlpha"/>
<feOffset dy="1"/>
<feGaussianBlur stdDeviation="1"/>
<feComposite in2="hardAlpha" operator="out"/>
<feColorMatrix type="matrix" values="0 0 0 0 0 0 0 0 0 0 0 0 0 0 0 0 0 0 0.4 0"/>
<feBlend mode="normal" in2="BackgroundImageFix" result="effect1_dropShadow_5389_3218"/>
<feBlend mode="normal" in="SourceGraphic" in2="effect1_dropShadow_5389_3218" result="shape"/>
</filter>
<clipPath id="clip0_5389_3218">
<rect width="24" height="24" fill="white" transform="translate(335)"/>
</clipPath>
</defs>
</svg>
