<svg width="73" height="81" viewBox="0 0 73 81" fill="none" xmlns="http://www.w3.org/2000/svg">
<g filter="url(#filter0_d_5389_128)">
<path d="M32.2894 27C31.714 27 31.2368 26.5467 31.2368 26V22C31.2368 21.4533 31.714 21 32.2894 21C32.8649 21 33.3421 21.4533 33.3421 22V26C33.3421 26.5467 32.8649 27 32.2894 27Z" fill="#4B7FD6"/>
<path d="M40.7105 27C40.135 27 39.6578 26.5467 39.6578 26V22C39.6578 21.4533 40.135 21 40.7105 21C41.2859 21 41.7631 21.4533 41.7631 22V26C41.7631 26.5467 41.2859 27 40.7105 27Z" fill="#4B7FD6"/>
<path d="M36.5 35.09C37.0473 35.09 37.4473 34.78 37.4473 34.29C37.4473 33.79 37.0473 33.5 36.5 33.5C35.9526 33.5 35.5526 33.79 35.5526 34.29C35.5526 34.78 35.9526 35.09 36.5 35.09Z" fill="#4B7FD6"/>
<path d="M36.5 38C37.1628 38 37.7 37.5836 37.7 37.07C37.7 36.5564 37.1628 36.14 36.5 36.14C35.8373 36.14 35.3 36.5564 35.3 37.07C35.3 37.5836 35.8373 38 36.5 38Z" fill="#4B7FD6"/>
<path d="M44.4684 25.5C43.7737 25.01 42.7737 25.48 42.7737 26.31V26.41C42.7737 27.58 41.8895 28.66 40.6579 28.78C39.2368 28.92 38.0368 27.86 38.0368 26.54V25.5C38.0368 24.95 37.5632 24.5 36.9842 24.5H36.0158C35.4368 24.5 34.9632 24.95 34.9632 25.5V26.54C34.9632 27.33 34.5316 28.03 33.8789 28.42C33.7842 28.48 33.6789 28.53 33.5737 28.58C33.4789 28.63 33.3737 28.67 33.2579 28.7C33.1316 28.74 32.9947 28.77 32.8474 28.78C32.6789 28.8 32.5105 28.8 32.3421 28.78C32.1947 28.77 32.0579 28.74 31.9316 28.7C31.8263 28.67 31.7211 28.63 31.6158 28.58C31.5105 28.53 31.4053 28.48 31.3105 28.42C30.6474 27.98 30.2263 27.22 30.2263 26.41V26.31C30.2263 25.54 29.3632 25.08 28.6789 25.41C28.6684 25.42 28.6579 25.42 28.6474 25.43C28.6053 25.45 28.5737 25.47 28.5316 25.5C28.5 25.53 28.4579 25.55 28.4263 25.58C28.1316 25.8 27.8684 26.05 27.6474 26.32C27.5316 26.44 27.4368 26.57 27.3526 26.7C27.3421 26.71 27.3316 26.72 27.3211 26.74C27.2263 26.87 27.1421 27.02 27.0684 27.16C27.0474 27.18 27.0368 27.19 27.0368 27.21C26.9737 27.33 26.9105 27.45 26.8684 27.58C26.8368 27.63 26.8263 27.67 26.8053 27.72C26.7421 27.87 26.7 28.02 26.6579 28.17C26.6158 28.31 26.5842 28.46 26.5632 28.61C26.5421 28.72 26.5316 28.83 26.5211 28.95C26.5105 29.09 26.5 29.23 26.5 29.37V38.13C26.5 40.82 28.7947 43 31.6263 43H41.3737C44.2053 43 46.5 40.82 46.5 38.13V29.37C46.5 27.78 45.7 26.39 44.4684 25.5ZM36.5 39.25C34.8684 39.25 33.8684 38.48 33.8684 37.24C33.8684 36.56 34.2368 35.97 34.8789 35.62C34.4158 35.31 34.1105 34.85 34.1105 34.22C34.1105 32.92 35.2053 32.25 36.5 32.25C37.7947 32.25 38.8789 32.92 38.8789 34.22C38.8789 34.85 38.5842 35.31 38.1105 35.62C38.7632 35.97 39.1316 36.56 39.1316 37.24C39.1316 38.48 38.1211 39.25 36.5 39.25Z" fill="#4B7FD6"/>
<path d="M26.824 51.6C26.904 51.6 26.944 51.64 26.944 51.72V52.488C26.944 52.568 26.904 52.608 26.824 52.608H24.52C24.488 52.608 24.472 52.624 24.472 52.656V59.88C24.472 59.96 24.432 60 24.352 60H23.44C23.36 60 23.32 59.96 23.32 59.88V52.656C23.32 52.624 23.304 52.608 23.272 52.608H21.076C20.996 52.608 20.956 52.568 20.956 52.488V51.72C20.956 51.64 20.996 51.6 21.076 51.6H26.824ZM30.4331 53.796C30.9211 53.796 31.3451 53.884 31.7051 54.06C32.0731 54.228 32.3531 54.468 32.5451 54.78C32.7451 55.084 32.8451 55.432 32.8451 55.824V59.88C32.8451 59.96 32.8051 60 32.7251 60H31.8131C31.7331 60 31.6931 59.96 31.6931 59.88V59.448C31.6931 59.408 31.6731 59.4 31.6331 59.424C31.4251 59.64 31.1691 59.808 30.8651 59.928C30.5691 60.04 30.2371 60.096 29.8691 60.096C29.2771 60.096 28.7851 59.948 28.3931 59.652C28.0091 59.348 27.8171 58.892 27.8171 58.284C27.8171 57.66 28.0331 57.172 28.4651 56.82C28.9051 56.46 29.5171 56.28 30.3011 56.28H31.6451C31.6771 56.28 31.6931 56.264 31.6931 56.232V55.908C31.6931 55.556 31.5891 55.284 31.3811 55.092C31.1811 54.892 30.8731 54.792 30.4571 54.792C30.1211 54.792 29.8451 54.86 29.6291 54.996C29.4211 55.124 29.2931 55.3 29.2451 55.524C29.2211 55.604 29.1731 55.64 29.1011 55.632L28.1291 55.5C28.0491 55.484 28.0131 55.452 28.0211 55.404C28.0851 54.932 28.3371 54.548 28.7771 54.252C29.2171 53.948 29.7691 53.796 30.4331 53.796ZM30.1211 59.124C30.5451 59.124 30.9131 59.012 31.2251 58.788C31.5371 58.564 31.6931 58.28 31.6931 57.936V57.228C31.6931 57.196 31.6771 57.18 31.6451 57.18H30.5171C30.0451 57.18 29.6691 57.272 29.3891 57.456C29.1091 57.64 28.9691 57.896 28.9691 58.224C28.9691 58.52 29.0731 58.744 29.2811 58.896C29.4971 59.048 29.7771 59.124 30.1211 59.124ZM36.7883 60.072C36.3083 60.072 35.8843 60 35.5163 59.856C35.1563 59.712 34.8763 59.516 34.6763 59.268C34.4763 59.012 34.3763 58.732 34.3763 58.428V58.296C34.3763 58.216 34.4163 58.176 34.4963 58.176H35.3603C35.4403 58.176 35.4803 58.216 35.4803 58.296V58.356C35.4803 58.58 35.6003 58.776 35.8403 58.944C36.0883 59.112 36.4003 59.196 36.7763 59.196C37.1363 59.196 37.4283 59.12 37.6523 58.968C37.8763 58.808 37.9883 58.608 37.9883 58.368C37.9883 58.136 37.8843 57.964 37.6763 57.852C37.4683 57.732 37.1323 57.608 36.6683 57.48C36.2123 57.352 35.8283 57.224 35.5163 57.096C35.2123 56.96 34.9523 56.772 34.7363 56.532C34.5283 56.284 34.4243 55.968 34.4243 55.584C34.4243 55.048 34.6323 54.624 35.0483 54.312C35.4723 53.992 36.0323 53.832 36.7283 53.832C37.1923 53.832 37.6003 53.908 37.9523 54.06C38.3123 54.204 38.5883 54.408 38.7803 54.672C38.9723 54.936 39.0683 55.232 39.0683 55.56V55.596C39.0683 55.676 39.0283 55.716 38.9483 55.716H38.1083C38.0283 55.716 37.9883 55.676 37.9883 55.596V55.56C37.9883 55.328 37.8723 55.136 37.6403 54.984C37.4163 54.824 37.1083 54.744 36.7163 54.744C36.3643 54.744 36.0763 54.812 35.8523 54.948C35.6363 55.084 35.5283 55.268 35.5283 55.5C35.5283 55.732 35.6323 55.908 35.8403 56.028C36.0563 56.148 36.4003 56.276 36.8723 56.412C37.3363 56.54 37.7203 56.668 38.0243 56.796C38.3363 56.916 38.6003 57.1 38.8163 57.348C39.0323 57.588 39.1403 57.904 39.1403 58.296C39.1403 58.84 38.9243 59.272 38.4923 59.592C38.0683 59.912 37.5003 60.072 36.7883 60.072ZM40.848 60C40.768 60 40.728 59.96 40.728 59.88V51.72C40.728 51.64 40.768 51.6 40.848 51.6H41.76C41.84 51.6 41.88 51.64 41.88 51.72V56.34C41.88 56.356 41.888 56.368 41.904 56.376C41.92 56.384 41.932 56.38 41.94 56.364L44.16 53.952C44.192 53.912 44.24 53.892 44.304 53.892H45.372C45.42 53.892 45.448 53.908 45.456 53.94C45.472 53.964 45.464 53.996 45.432 54.036L43.884 55.824C43.868 55.856 43.864 55.88 43.872 55.896L45.708 59.856L45.72 59.904C45.72 59.968 45.684 60 45.612 60H44.652C44.588 60 44.544 59.968 44.52 59.904L43.092 56.64C43.076 56.6 43.056 56.596 43.032 56.628L41.904 57.876C41.888 57.908 41.88 57.928 41.88 57.936V59.88C41.88 59.96 41.84 60 41.76 60H40.848ZM49.1746 60.072C48.6946 60.072 48.2706 60 47.9026 59.856C47.5426 59.712 47.2626 59.516 47.0626 59.268C46.8626 59.012 46.7626 58.732 46.7626 58.428V58.296C46.7626 58.216 46.8026 58.176 46.8826 58.176H47.7466C47.8266 58.176 47.8666 58.216 47.8666 58.296V58.356C47.8666 58.58 47.9866 58.776 48.2266 58.944C48.4746 59.112 48.7866 59.196 49.1626 59.196C49.5226 59.196 49.8146 59.12 50.0386 58.968C50.2626 58.808 50.3746 58.608 50.3746 58.368C50.3746 58.136 50.2706 57.964 50.0626 57.852C49.8546 57.732 49.5186 57.608 49.0546 57.48C48.5986 57.352 48.2146 57.224 47.9026 57.096C47.5986 56.96 47.3386 56.772 47.1226 56.532C46.9146 56.284 46.8106 55.968 46.8106 55.584C46.8106 55.048 47.0186 54.624 47.4346 54.312C47.8586 53.992 48.4186 53.832 49.1146 53.832C49.5786 53.832 49.9866 53.908 50.3386 54.06C50.6986 54.204 50.9746 54.408 51.1666 54.672C51.3586 54.936 51.4546 55.232 51.4546 55.56V55.596C51.4546 55.676 51.4146 55.716 51.3346 55.716H50.4946C50.4146 55.716 50.3746 55.676 50.3746 55.596V55.56C50.3746 55.328 50.2586 55.136 50.0266 54.984C49.8026 54.824 49.4946 54.744 49.1026 54.744C48.7506 54.744 48.4626 54.812 48.2386 54.948C48.0226 55.084 47.9146 55.268 47.9146 55.5C47.9146 55.732 48.0186 55.908 48.2266 56.028C48.4426 56.148 48.7866 56.276 49.2586 56.412C49.7226 56.54 50.1066 56.668 50.4106 56.796C50.7226 56.916 50.9866 57.1 51.2026 57.348C51.4186 57.588 51.5266 57.904 51.5266 58.296C51.5266 58.84 51.3106 59.272 50.8786 59.592C50.4546 59.912 49.8866 60.072 49.1746 60.072Z" fill="#4B7FD6"/>
</g>
<defs>
<filter id="filter0_d_5389_128" x="0.5" y="0" width="72" height="82" filterUnits="userSpaceOnUse" color-interpolation-filters="sRGB">
<feFlood flood-opacity="0" result="BackgroundImageFix"/>
<feColorMatrix in="SourceAlpha" type="matrix" values="0 0 0 0 0 0 0 0 0 0 0 0 0 0 0 0 0 0 127 0" result="hardAlpha"/>
<feOffset/>
<feGaussianBlur stdDeviation="10"/>
<feComposite in2="hardAlpha" operator="out"/>
<feColorMatrix type="matrix" values="0 0 0 0 0.0705882 0 0 0 0 0.0784314 0 0 0 0 0.133333 0 0 0 0.6 0"/>
<feBlend mode="normal" in2="BackgroundImageFix" result="effect1_dropShadow_5389_128"/>
<feBlend mode="normal" in="SourceGraphic" in2="effect1_dropShadow_5389_128" result="shape"/>
</filter>
</defs>
</svg>
